<svg preserveAspectRatio="none" width="100%" height="100%" overflow="visible" style="display: block;" viewBox="0 0 544 504.877" fill="none" xmlns="http://www.w3.org/2000/svg">
<path id="Union" d="M271.99 438.187L136.179 504.695V504.877L135.993 504.786L135.812 504.876V504.696L0 438.188V304.81L135.992 371.407L271.99 304.809V438.187ZM544 438.187L408.181 504.699V504.877L407.999 504.788L407.821 504.876V504.7L272.002 438.188V304.81L407.998 371.409L544 304.809V438.187ZM271.99 285.983L135.812 352.673V219.294L271.99 152.605V285.983ZM408.007 219.202L544 152.605V285.983L408.181 352.496V352.666L408.008 352.581L407.821 352.673V352.489L272.002 285.978V152.599L408.007 219.202ZM544 133.378L407.821 200.067V66.6885L544 0V133.378Z" fill="var(--fill-0, white)" fill-opacity="0.14"/>
</svg>
