<svg width="24" height="28" viewBox="0 0 24 28" fill="none" xmlns="http://www.w3.org/2000/svg">
<g clip-path="url(#clip0_596_1821)">
<path d="M11.6861 0.339758L4.1387 13.0093C4.07951 13.1087 3.942 13.1197 3.86857 13.0309C3.20413 12.2259 0.728741 8.80177 3.79178 5.68084C6.58682 2.833 10.1469 0.802536 11.4663 0.100768C11.616 0.0211492 11.7737 0.192691 11.6861 0.339758Z" fill="#011A25"/>
<path d="M11.2685 27.9254C11.4191 28.033 11.6047 27.8495 11.5038 27.6929C9.818 25.077 4.2141 16.3734 3.44 15.0668C2.67646 13.7781 1.17471 11.6364 1.04943 9.80405C1.03693 9.62112 0.788996 9.58398 0.726627 9.75601C0.62604 10.0334 0.518952 10.3646 0.419146 10.7428C-0.840817 15.5178 0.989035 20.5849 4.96309 23.4227L11.2685 27.9255V27.9254Z" fill="#011A25"/>
<path d="M12.3054 27.7001L19.8528 15.0306C19.912 14.9312 20.0496 14.9202 20.123 15.0091C20.7874 15.8139 23.2628 19.2382 20.1997 22.3591C17.4047 25.2069 13.8446 27.2374 12.5252 27.9391C12.3755 28.0188 12.2178 27.8472 12.3054 27.7001Z" fill="#011A25"/>
<path d="M12.7308 0.112775C12.5802 0.00521563 12.3946 0.188646 12.4956 0.345291C14.1814 2.96118 19.7853 11.6649 20.5593 12.9713C21.3229 14.2601 22.8246 16.4018 22.95 18.2341C22.9624 18.417 23.2104 18.4541 23.2728 18.2821C23.3733 18.0047 23.4804 17.6737 23.5802 17.2953C24.8401 12.5203 23.0103 7.45335 19.0363 4.61547L12.7308 0.112775Z" fill="#011A25"/>
</g>
<defs>
<clipPath id="clip0_596_1821">
<rect width="24" height="28" fill="white"/>
</clipPath>
</defs>
</svg>
