<svg preserveAspectRatio="none" width="100%" height="100%" overflow="visible" style="display: block;" viewBox="0 0 144 129" fill="none" xmlns="http://www.w3.org/2000/svg">
<g id="Graphic 2" clip-path="url(#clip0_546_16630)">
<g id="Group">
<path id="Vector" d="M51.8635 94.3793L50.6096 95.188C50.2207 95.4418 49.9152 95.8065 49.7406 96.2386L41.1337 116.334C27.9753 105.781 19.5549 89.5745 19.5549 71.4059C19.5549 59.7428 23.0231 48.8884 28.9911 39.8219L48.7882 52.3532C45.1216 57.7963 42.9828 64.3533 42.9828 71.4059C42.9828 80.2464 46.3438 88.3099 51.8635 94.3793Z" fill="var(--fill-0, #135BEC)"/>
<path id="Vector_2" d="M99.2035 124.659C92.4219 127.454 84.9936 129 77.2041 129C76.9422 129 76.6843 129 76.4224 128.996C71.5455 128.933 66.8115 128.259 62.2997 127.058L62.4347 125.741L64.0418 110.189C64.0814 109.864 63.8513 109.567 63.5259 109.523C63.1965 109.48 62.9029 109.714 62.8592 110.039L61.1688 125.432L61.0299 126.701C53.6849 124.56 46.947 121 41.1337 116.334L49.7406 96.2387C49.9152 95.8066 50.2207 95.4418 50.6096 95.1881L51.8635 94.3794C57.9586 101.091 66.6885 105.369 76.4224 105.587C76.6843 105.595 76.9422 105.599 77.2041 105.599C84.4856 105.599 91.2354 103.327 96.7869 99.4458L99.0527 123.093L99.2035 124.659Z" fill="var(--fill-0, #0A0919)"/>
<path id="Vector_3" d="M127.302 66.9499C127.282 67.2671 127.131 67.5684 126.885 67.7745L109.675 82.2325L108.358 83.3425L108.203 83.4694L108.334 85.6299L108.608 90.0502L108.37 90.0661L105.775 90.2326L97.116 90.7876L96.0089 90.8589L95.8978 90.8669C95.632 89.4238 94.2193 81.5903 94.2471 78.7795C94.2788 75.7627 96.1399 72.4921 96.1558 72.4604L101.402 63.4613C101.537 63.2274 101.727 63.0252 101.953 62.8785L102.358 62.6129C102.81 62.3156 103.362 62.2442 103.874 62.4147L104.215 62.5297C104.858 62.7437 105.322 63.3146 105.402 63.9886C105.433 64.2502 105.402 64.5237 105.314 64.7735L102.83 71.8221C102.787 71.941 102.802 72.0719 102.874 72.1749C102.945 72.282 103.056 72.3454 103.183 72.3533L110.421 72.7022C110.35 73.166 110.302 73.5347 110.274 73.7607C109.235 74.6011 104.124 78.724 103.628 79.2909C103.485 79.4535 103.501 79.7072 103.667 79.8499C103.743 79.9173 103.834 79.949 103.929 79.949C104.036 79.949 104.148 79.9015 104.227 79.8103C104.584 79.402 108.413 76.278 110.901 74.28C110.981 74.2126 111.032 74.1175 111.044 74.0144C111.092 73.5942 111.167 73.0629 111.27 72.4643C111.282 72.4287 111.29 72.389 111.294 72.3494V72.3256C111.334 72.0996 111.378 71.8618 111.429 71.6199C112.044 68.5079 113.322 64.3533 115.37 64.0758C115.473 64.0837 115.695 64.1313 115.786 64.2462C115.842 64.3216 115.85 64.4444 115.806 64.607C115.802 64.6228 115.798 64.6347 115.794 64.6506C115.79 64.6783 115.596 66.0024 115.381 67.83C115.377 67.8538 115.373 67.8815 115.373 67.9093C115.108 70.1135 114.822 73.0273 114.798 75.2751C114.798 75.4971 114.973 75.6755 115.191 75.6755C115.413 75.6675 115.592 75.501 115.592 75.283C115.616 73.0629 115.897 70.1888 116.159 68.0044C116.937 66.2363 119.31 61.9984 121.342 62.5772L118.818 71.5089C118.758 71.719 118.881 71.9371 119.092 71.9965C119.127 72.0084 119.163 72.0124 119.199 72.0124C119.373 72.0124 119.532 71.8974 119.58 71.723L120.48 68.5357C121.921 67.4574 125.869 64.9598 127.052 66.2244C127.23 66.4147 127.318 66.6724 127.302 66.9499Z" fill="var(--fill-0, white)"/>
<path id="Vector_4" d="M126.385 101.468C124.048 105.273 121.286 108.786 118.155 111.942L109.783 90.9582L126.385 101.468Z" fill="var(--fill-0, #135BEC)"/>
<path id="Vector_5" d="M134.853 71.4058C134.853 82.4228 131.758 92.7182 126.385 101.468L109.782 90.958L109.441 90.74H109.437L108.616 90.2206L108.37 90.066L108.608 90.0502L108.334 85.6299C108.58 85.0947 108.814 84.5516 109.033 84.0006C109.068 83.9094 109.104 83.8182 109.14 83.7231C109.33 83.2315 109.509 82.7359 109.675 82.2325L126.885 67.7745C127.131 67.5683 127.282 67.267 127.302 66.9499C127.318 66.6724 127.23 66.4147 127.052 66.2244C125.869 64.9598 121.921 67.4573 120.481 68.5356L119.58 71.723C119.532 71.8974 119.373 72.0124 119.199 72.0124C119.163 72.0124 119.127 72.0084 119.092 71.9965C118.881 71.937 118.758 71.719 118.818 71.5089L121.342 62.5772C119.31 61.9984 116.937 66.2363 116.159 68.0004C115.897 70.1888 115.616 73.0629 115.592 75.283C115.592 75.501 115.413 75.6675 115.191 75.6754C114.973 75.6754 114.798 75.497 114.798 75.275C114.822 73.0272 115.108 70.1134 115.374 67.9093C115.374 67.8815 115.378 67.8538 115.382 67.83C115.596 66.0024 115.79 64.6783 115.794 64.6506C115.798 64.6347 115.802 64.6228 115.806 64.607C115.85 64.4444 115.842 64.3215 115.786 64.2462C115.695 64.1312 115.473 64.0837 115.37 64.0757C113.322 64.3532 112.044 68.5079 111.429 71.6199V71.4058C111.429 70.4782 111.394 69.5624 111.318 68.6546C109.917 51.0608 95.1757 37.2133 77.204 37.2133C76.9421 37.2133 76.6842 37.2133 76.4223 37.2252V13.8157C76.6842 13.8117 76.9421 13.8117 77.204 13.8117C91.9576 13.8117 105.418 19.346 115.612 28.4521C115.826 28.6424 116.036 28.8326 116.243 29.0269C116.822 29.5581 117.385 30.0973 117.941 30.6523C118.405 31.1121 118.858 31.5839 119.306 32.0596C119.715 32.4957 120.112 32.9318 120.5 33.3798H120.504C121.223 34.1964 121.917 35.0289 122.588 35.8813C122.85 36.2182 123.111 36.5592 123.369 36.9001C123.691 37.3362 124.008 37.7683 124.322 38.2123C124.473 38.4264 124.623 38.6444 124.774 38.8625C126.778 41.7763 128.52 44.8883 129.961 48.1549C133.107 55.2669 134.853 63.1322 134.853 71.4058Z" fill="var(--fill-0, #EAF1FE)"/>
<path id="Vector_6" d="M76.422 13.8158V37.2253C64.9065 37.479 54.7917 43.4216 48.7879 52.3532L28.9908 39.8219C39.1612 24.357 56.5813 14.0814 76.422 13.8158Z" fill="var(--fill-0, #0A0A0A)"/>
</g>
<path id="Vector_7" d="M98.7076 123.168V123.16H99.1044L98.7076 123.168Z" fill="var(--fill-0, #0A0A0A)"/>
<path id="Vector_8" d="M118.155 111.942C113.08 117.06 107.052 121.23 100.354 124.168L100.203 122.602L97.9057 98.6372C100.977 96.3022 103.644 93.4598 105.775 90.2328L108.37 90.0663L108.616 90.2209L109.437 90.7402H109.441L109.782 90.9583L118.155 111.942Z" fill="var(--fill-0, #0A0919)"/>
<path id="Vector_9" d="M105.775 90.2327C103.644 93.4597 100.977 96.3021 97.9059 98.6371C97.5408 98.9146 97.1678 99.1882 96.7869 99.4458C91.2354 103.327 84.4856 105.599 77.2041 105.599C76.9422 105.599 76.6843 105.595 76.4224 105.587C66.6885 105.369 57.9586 101.091 51.8635 94.3794L52.0064 94.2882C55.6214 91.9453 59.5101 89.8283 63.5656 88.3734L64.629 87.9889L64.8711 87.9017C64.5021 88.1474 65.3552 88.1474 65.3036 88.3298C65.2957 88.3576 65.2679 88.3893 65.2124 88.4249C64.4108 88.9482 62.1489 89.9433 61.3434 90.4706C60.9149 90.756 60.9109 91.3863 61.3355 91.6718C63.3434 93.0196 65.1647 93.8799 66.5377 94.4349C68.9186 95.3943 73.5296 97.1941 77.9699 95.7709C79.8707 95.1604 80.6683 94.3041 81.0453 93.7927C82.0571 92.4369 82.0452 90.9185 82.0452 90.312C82.0254 86.9344 79.2437 84.6112 78.1684 83.8184C77.9461 83.6558 77.6684 83.6083 77.4025 83.6796L76.8708 83.8263L76.8073 83.8461C76.8073 83.8461 76.7993 83.8501 76.7954 83.8501L76.4224 83.4616C76.6485 83.3981 76.8747 83.3347 77.1009 83.2753C78.2398 82.9541 79.3786 82.641 80.5175 82.3238C81.8389 82.0423 83.815 81.8203 86.0848 82.3238C90.7632 83.3625 93.529 86.7758 94.6719 88.5042C94.9139 88.869 95.0845 89.1584 95.1837 89.3328L95.3583 90.9027L95.898 90.867L96.0091 90.8591L97.1162 90.7877L105.775 90.2327Z" fill="var(--fill-0, #0A0919)"/>
<path id="Vector_10" d="M109.783 90.9582L109.441 90.7401H109.437L108.616 90.2208L108.37 90.0662L108.608 90.0503L109.398 89.9988L109.783 90.9582Z" fill="var(--fill-0, #0A0919)"/>
<path id="Vector_11" d="M64.0415 110.189L62.4344 125.741L62.2995 127.058C61.8749 126.943 61.4503 126.824 61.0297 126.701L61.1685 125.432L62.859 110.039C62.9026 109.714 63.1963 109.48 63.5256 109.523C63.851 109.567 64.0812 109.864 64.0415 110.189Z" fill="var(--fill-0, white)"/>
<g id="Group_2">
<path id="Vector_12" d="M100.354 124.168C99.9733 124.334 99.5884 124.501 99.2035 124.659L99.0527 123.093L96.7869 99.4459C97.1678 99.1882 97.5408 98.9147 97.9059 98.6372L100.203 122.602L100.354 124.168Z" fill="var(--fill-0, white)"/>
<path id="Vector_13" d="M97.9062 98.6371C97.5411 98.9146 97.1681 99.1882 96.7871 99.4458L95.9856 91.085C95.9776 91.0057 95.9895 90.9304 96.0094 90.8591L97.1165 90.7877C97.1482 90.8472 97.1641 90.9146 97.172 90.9859L97.9062 98.6371Z" fill="var(--fill-0, white)"/>
</g>
<path id="Vector_14" d="M81.7992 72.9005C81.327 74.9422 80.1683 76.6587 78.5334 77.737C77.97 78.1057 77.3986 78.3713 76.8351 78.5576C76.5692 78.6449 76.3113 78.7162 76.0534 78.7717C74.0891 79.188 72.363 78.74 71.74 78.5378C69.3789 77.7767 67.998 76.1354 67.383 75.2236C67.2599 75.0452 67.3076 74.7955 67.4901 74.6765C67.6726 74.5536 67.9187 74.6012 68.0417 74.7836C68.5972 75.6082 69.8472 77.0948 71.986 77.7846C72.5931 77.9789 74.3748 78.4427 76.3232 77.8877C76.9105 77.7212 77.5097 77.4635 78.0969 77.075C80.0731 75.7747 80.7794 73.7925 81.0254 72.7221C81.4183 71.0056 81.1723 69.2533 80.2874 67.505C79.839 66.617 79.2318 65.8202 78.4819 65.1343C78.3906 65.0511 78.343 64.9282 78.3549 64.8053C78.3668 64.6784 78.4342 64.5674 78.5414 64.504C78.7398 64.3811 78.8906 64.2265 78.9898 64.0441C79.2675 63.5288 79.1326 62.843 78.8231 62.5773C78.6803 62.4505 78.5414 62.4505 78.1803 62.4822C77.8985 62.506 77.5533 62.5337 77.1446 62.4386C76.2081 62.2205 75.7716 61.5466 75.347 60.8925C75.1288 60.5634 74.9066 60.2185 74.6089 59.9054C73.0931 58.3236 69.998 57.9153 67.7044 58.9936C66.8711 59.3821 66.1449 59.9807 65.5378 60.7656C66.0497 61.507 66.383 62.3514 66.51 63.2196C66.5933 63.8063 66.8512 65.5982 65.633 67.0808C64.6806 68.2424 63.3553 68.5635 62.7085 68.6507C62.4704 68.8807 62.0617 69.3643 61.9506 70.07C61.8553 70.6805 61.9545 71.2117 62.2442 71.6399C62.8315 72.512 63.9148 72.5477 64.0378 72.5477C64.2442 72.5516 64.4148 72.7142 64.4267 72.9203C64.5894 75.3505 64.76 77.9115 64.9267 80.4724C65.0933 83.0294 65.264 85.5904 65.4267 88.0206C65.4346 88.1434 65.387 88.2544 65.3036 88.3298C65.2402 88.3972 65.1529 88.4368 65.0576 88.4447H65.0298C64.8235 88.4447 64.6489 88.2862 64.633 88.0761C64.633 88.0483 64.6291 88.0166 64.6291 87.9888C64.4664 85.5825 64.2997 83.0493 64.133 80.524C64.0457 79.1999 63.9624 77.8758 63.8751 76.5715C63.8037 75.4694 63.7283 74.3753 63.6569 73.3088C63.1331 73.2335 62.1847 72.9679 61.5895 72.0839C61.1807 71.4813 61.0379 70.7637 61.1649 69.951C61.3276 68.9243 61.9307 68.2702 62.2799 67.9728C62.3394 67.9213 62.4148 67.8896 62.4942 67.8816C62.9743 67.8301 64.1807 67.6002 65.0179 66.5774C66.0179 65.3643 65.8036 63.8895 65.7243 63.3345C65.6052 62.502 65.26 61.6973 64.7322 61.0075C64.6251 60.8687 64.6211 60.6784 64.7203 60.5357C65.4425 59.5208 66.3314 58.7597 67.3671 58.276C69.9424 57.0629 73.4502 57.5505 75.1804 59.3583C75.5018 59.6953 75.7478 60.056 75.9621 60.3811C75.974 60.4088 75.9938 60.4326 76.0097 60.4604C76.4105 61.0748 76.7002 61.5228 77.3232 61.6655C77.6128 61.7329 77.8668 61.7131 78.1128 61.6893C78.4938 61.6576 78.9342 61.6219 79.3429 61.9787C79.9699 62.5179 80.1207 63.616 79.6882 64.4208C79.5969 64.5833 79.4858 64.7339 79.3509 64.8687C80.0215 65.5427 80.5731 66.3078 80.9977 67.1482C81.9659 69.063 82.2357 71.0016 81.7992 72.9005Z" fill="var(--fill-0, #0A0919)"/>
<path id="Vector_15" d="M77.1088 83.4417C77.1207 83.632 76.9897 83.8025 76.8072 83.8461C76.8032 83.8461 76.7993 83.85 76.7953 83.85C76.7755 83.854 76.7556 83.858 76.7318 83.858H76.712C76.5017 83.858 76.3271 83.6954 76.3151 83.4853L76.0533 78.7717L76.0255 78.292C76.0136 78.1017 76.1445 77.9313 76.3231 77.8877C76.3509 77.8797 76.3747 77.8758 76.4024 77.8758C76.6286 77.8559 76.8072 78.0304 76.8191 78.2484L76.835 78.5576L77.1008 83.2752L77.1088 83.4417Z" fill="var(--fill-0, #0A0919)"/>
<path id="Vector_16" d="M65.4944 71.5251C65.5222 71.7431 65.3714 71.9453 65.1532 71.973C65.1373 71.973 65.1174 71.973 65.1016 71.973C64.9032 71.973 64.7365 71.8303 64.7087 71.6321C64.6889 71.4854 64.5857 70.974 64.1214 70.6172C63.6413 70.2446 63.1056 70.2842 62.9508 70.308C62.7326 70.3397 62.5342 70.1851 62.5064 69.9671C62.4747 69.753 62.6255 69.5508 62.8437 69.5231C63.1373 69.4794 63.9032 69.4438 64.6056 69.9908C65.2881 70.5181 65.4547 71.2396 65.4944 71.5211V71.5251Z" fill="var(--fill-0, #0A0919)"/>
<path id="Vector_17" d="M78.2638 66.7916C78.0495 67.0056 77.4543 67.5052 76.5615 67.517H76.5297C75.4186 67.517 74.744 66.748 74.6171 66.5934C74.4782 66.4229 74.506 66.1731 74.6766 66.0344C74.8472 65.8996 75.0972 65.9234 75.2361 66.0938C75.2877 66.1612 75.7639 66.7242 76.5297 66.7242H76.5535C77.1527 66.7162 77.5575 66.3753 77.7043 66.2286C77.859 66.074 78.109 66.074 78.2638 66.2286C78.4185 66.3832 78.4185 66.637 78.2638 66.7916Z" fill="var(--fill-0, #0A0919)"/>
<path id="Vector_18" d="M74.089 61.1741C74.1088 61.3922 73.9501 61.5864 73.7319 61.6102C73.5731 61.6261 73.2676 61.6895 72.9898 61.9393C72.7081 62.193 72.6128 62.5022 72.5811 62.6608C72.5414 62.8511 72.3787 62.9819 72.1922 62.9819C72.1644 62.9819 72.1406 62.9779 72.1128 62.974C71.8986 62.9303 71.7597 62.7242 71.8033 62.5062C71.8549 62.2485 72.0057 61.7569 72.4581 61.3486C72.9025 60.9521 73.3985 60.8451 73.6525 60.8213C73.8707 60.8015 74.0652 60.9561 74.089 61.1741Z" fill="var(--fill-0, #0A0919)"/>
<g id="Group_3">
<path id="Vector_19" d="M78.1685 83.8184C77.9463 83.6558 77.6685 83.6082 77.4027 83.6796L76.8074 83.8461C76.8074 83.8461 76.7995 83.8501 76.7955 83.8501C76.7757 83.854 76.7559 83.858 76.732 83.858H76.7122C76.5019 83.858 76.3273 83.6955 76.3154 83.4853L76.0535 78.7717C74.0893 79.188 72.3631 78.74 71.7401 78.5378C69.3791 77.7767 67.9982 76.1354 67.3831 75.2236C67.2601 75.0452 67.3077 74.7955 67.4902 74.6766C67.6728 74.5537 67.9188 74.6012 68.0418 74.7836C68.5974 75.6082 69.8473 77.0948 71.9861 77.7846C72.5933 77.9789 74.375 78.4427 76.3233 77.8877C76.9106 77.7212 77.5098 77.4635 78.0971 77.075C80.0732 75.7747 80.7796 73.7925 81.0256 72.7221C81.4184 71.0056 81.1724 69.2533 80.2875 67.505C79.8391 66.617 79.232 65.8202 78.482 65.1344C78.3907 65.0511 78.3431 64.9282 78.355 64.8053C78.3669 64.6785 78.4344 64.5675 78.5415 64.504C78.7399 64.3811 78.8907 64.2265 78.9899 64.0442C79.2677 63.5288 79.1328 62.843 78.8233 62.5774C78.6804 62.4505 78.5415 62.4505 78.1804 62.4822C77.8987 62.506 77.5535 62.5338 77.1447 62.4386C76.2083 62.2206 75.7718 61.5466 75.3472 60.8925C75.1289 60.5635 74.9067 60.2186 74.6091 59.9054C73.0933 58.3236 69.9981 57.9153 67.7045 58.9936C66.8712 59.3821 66.145 59.9807 65.5379 60.7657C66.0498 61.507 66.3831 62.3514 66.5101 63.2196C66.5934 63.8063 66.8514 65.5982 65.6331 67.0809C64.6808 68.2424 63.3554 68.5635 62.7086 68.6507C62.4705 68.8807 62.0618 69.3643 61.9507 70.07C61.8555 70.6805 61.9547 71.2117 62.2444 71.6399C62.8316 72.512 63.9149 72.5477 64.038 72.5477C64.2443 72.5517 64.4149 72.7142 64.4268 72.9204C64.5895 75.3505 64.7602 77.9115 64.9268 80.4724C65.0935 83.0295 65.2641 85.5904 65.4268 88.0206C65.4347 88.1435 65.3871 88.2545 65.3038 88.3298C65.2959 88.3575 65.2681 88.3893 65.2125 88.4249C64.411 88.9482 62.1491 89.9433 61.3436 90.4705C60.915 90.756 60.9111 91.3863 61.3356 91.6717C63.3435 93.0196 65.1649 93.8799 66.5379 94.4349C68.9188 95.3943 73.5298 97.1941 77.9701 95.7709C79.8709 95.1604 80.6684 94.3041 81.0454 93.7927C82.0573 92.4369 82.0454 90.9185 82.0454 90.312C82.0255 86.9343 79.2439 84.6112 78.1685 83.8184ZM76.5297 66.7241H76.5535C77.1527 66.7161 77.5574 66.3752 77.7042 66.2285C77.859 66.0739 78.109 66.0739 78.2637 66.2285C78.4185 66.3831 78.4185 66.6369 78.2637 66.7915C78.0495 67.0055 77.4542 67.505 76.5614 67.5169H76.5297C75.4186 67.5169 74.744 66.7479 74.617 66.5932C74.4781 66.4228 74.5059 66.173 74.6765 66.0343C74.8472 65.8995 75.0972 65.9233 75.2361 66.0937C75.2876 66.1611 75.7638 66.7241 76.5297 66.7241ZM74.5654 62.5456L75.4186 63.398C75.5733 63.5526 75.5733 63.8023 75.4186 63.957C75.3432 64.0362 75.24 64.0759 75.1369 64.0759C75.0337 64.0759 74.9345 64.0362 74.8591 63.957L74.0059 63.1046C73.8512 62.95 73.8512 62.7003 74.0059 62.5456C74.1607 62.391 74.4107 62.391 74.5654 62.5456ZM71.8036 62.506C71.8552 62.2483 72.006 61.7567 72.4584 61.3484C72.9028 60.952 73.3988 60.8449 73.6528 60.8212C73.871 60.8013 74.0655 60.9559 74.0893 61.174C74.1091 61.392 73.9504 61.5863 73.7321 61.6101C73.5734 61.6259 73.2679 61.6893 72.9901 61.9391C72.7083 62.1928 72.6131 62.502 72.5814 62.6606C72.5417 62.8509 72.379 62.9817 72.1925 62.9817C72.1647 62.9817 72.1409 62.9778 72.1131 62.9738C71.8988 62.9302 71.76 62.724 71.8036 62.506ZM65.153 71.9729C65.153 71.9729 65.1173 71.9729 65.1014 71.9729C64.903 71.9729 64.7363 71.8302 64.7086 71.6319C64.6887 71.4853 64.5856 70.9739 64.1213 70.6171C63.6411 70.2444 63.1054 70.2841 62.9507 70.3078C62.7324 70.3396 62.534 70.185 62.5063 69.9669C62.4745 69.7528 62.6253 69.5507 62.8435 69.5229C63.1372 69.4793 63.903 69.4436 64.6054 69.9907C65.2879 70.518 65.4546 71.2395 65.4943 71.5209C65.522 71.739 65.3713 71.9412 65.153 71.9689V71.9729Z" fill="var(--fill-0, white)"/>
<path id="Vector_20" d="M75.4184 63.957C75.343 64.0362 75.2398 64.0759 75.1366 64.0759C75.0334 64.0759 74.9342 64.0362 74.8588 63.957L74.0057 63.1046C73.8509 62.95 73.8509 62.7003 74.0057 62.5457C74.1605 62.391 74.4104 62.391 74.5652 62.5457L75.4184 63.398C75.5731 63.5526 75.5731 63.8024 75.4184 63.957Z" fill="var(--fill-0, #0A0919)"/>
</g>
<path id="Vector_21" d="M63.9983 76.5873C63.4864 76.5318 57.5897 75.8143 54.7168 70.4664C52.3557 66.0699 53.7644 61.7646 54.0144 61.0391H52.1296C52.2803 60.6784 52.7287 59.7269 53.7843 59.1124C54.3358 58.7913 54.8596 58.6724 55.2128 58.6248C55.5461 57.8716 56.3556 56.3295 58.0619 55.1481C60.7682 53.273 63.7007 53.709 64.3514 53.82C64.5697 53.5267 65.5855 52.2422 67.3871 51.9647C69.8989 51.5802 71.6171 53.5108 71.7282 53.6416C72.2401 53.6932 72.9425 53.8319 73.6885 54.2046C74.2797 54.4979 75.9106 55.2908 76.4186 57.0787C76.8789 58.6922 76.1289 60.0877 75.9345 60.4246L75.6091 60.5832C75.6091 60.5832 74.117 58.0341 70.9743 58.0183C67.8315 58.0024 65.2959 59.9846 65.2959 59.9846L65.1728 60.9479L66.0855 63.1085L66.0022 65.5625L64.3475 67.6755L62.3753 68.4287L61.5539 70.0184L62.1055 72.1195L64.0261 72.956L63.9943 76.5992L63.9983 76.5873Z" fill="var(--fill-0, #0A0919)"/>
<path id="Vector_22" d="M111.294 72.3258V72.3496C111.294 72.3892 111.282 72.4289 111.271 72.4645C111.211 72.6231 111.052 72.7341 110.878 72.7262L110.421 72.7024L103.183 72.3535C103.056 72.3456 102.945 72.2822 102.874 72.1751C102.803 72.0721 102.787 71.9412 102.83 71.8223L105.314 64.7737C105.402 64.5239 105.433 64.2504 105.402 63.9888C105.322 63.3148 104.858 62.744 104.215 62.5299L103.874 62.4149C103.362 62.2444 102.81 62.3158 102.358 62.6131L101.953 62.8787C101.727 63.0254 101.537 63.2276 101.402 63.4615L96.1559 72.4606C96.14 72.4923 94.279 75.7629 94.2472 78.7798C94.2194 81.5905 95.6321 89.424 95.898 90.8671C95.9257 91.0098 95.9416 91.0891 95.9416 91.097C95.9813 91.315 95.8384 91.5212 95.6242 91.5608C95.6003 91.5648 95.5726 91.5688 95.5488 91.5688C95.3623 91.5688 95.1956 91.434 95.1599 91.2437C95.1361 91.1168 94.9297 90.0227 94.6718 88.5043C94.1599 85.5112 93.4337 80.8729 93.4536 78.7718C93.4853 75.5448 95.39 72.2029 95.4694 72.0641L100.715 63.0611C100.914 62.7241 101.187 62.4308 101.517 62.2167L101.922 61.9511C102.576 61.519 103.382 61.4159 104.128 61.6617L104.465 61.7767C105.398 62.0859 106.076 62.9184 106.191 63.8976C106.235 64.2782 106.191 64.6746 106.06 65.0353L103.755 71.5845L110.556 71.9175L110.917 71.9333C111.128 71.9452 111.29 72.1157 111.294 72.3258Z" fill="var(--fill-0, #0A0919)"/>
<path id="Vector_23" d="M116.58 64.7855C116.568 64.8687 116.521 65.1938 116.453 65.6933C116.374 66.2682 116.271 67.0729 116.16 68.0006C115.898 70.1889 115.616 73.0631 115.592 75.2831C115.592 75.5011 115.414 75.6676 115.191 75.6756C114.973 75.6756 114.799 75.4972 114.799 75.2752C114.822 73.0274 115.108 70.1136 115.374 67.9094C115.374 67.8817 115.378 67.8539 115.382 67.8301C115.596 66.0026 115.791 64.6785 115.795 64.6507C115.799 64.6348 115.802 64.623 115.806 64.6071C115.85 64.4446 115.842 64.3217 115.787 64.2463C115.695 64.1314 115.473 64.0838 115.37 64.0759C113.322 64.3534 112.045 68.508 111.43 71.62C111.378 71.8619 111.334 72.0997 111.295 72.3257C111.287 72.3772 111.279 72.4208 111.271 72.4644C111.168 73.0631 111.092 73.5943 111.045 74.0145C111.033 74.1176 110.981 74.2127 110.902 74.2801C108.414 76.2781 104.585 79.4021 104.227 79.8104C104.148 79.9016 104.037 79.9491 103.93 79.9491C103.835 79.9491 103.743 79.9174 103.668 79.85C103.501 79.7073 103.485 79.4536 103.628 79.2911C104.124 78.7242 109.235 74.6012 110.275 73.7608C110.303 73.5348 110.35 73.1661 110.422 72.7023C110.461 72.4644 110.505 72.2028 110.557 71.9174C110.723 70.9738 110.973 69.8163 111.318 68.6547C112.088 66.0858 113.342 63.5129 115.31 63.283C115.326 63.283 115.346 63.283 115.362 63.283C115.433 63.283 116.068 63.3068 116.418 63.7706C116.56 63.9569 116.703 64.286 116.58 64.7855Z" fill="var(--fill-0, #0A0919)"/>
<path id="Vector_24" d="M122.104 62.7915L120.826 67.3188L120.481 68.5358L119.58 71.7232C119.532 71.8976 119.374 72.0126 119.199 72.0126C119.163 72.0126 119.128 72.0086 119.092 71.9967C118.882 71.9372 118.759 71.7192 118.818 71.5091L121.342 62.5774C119.31 61.9986 116.937 66.2365 116.159 68.0006C116.148 68.0244 116.14 68.0442 116.132 68.0641C116.044 68.2663 115.81 68.3614 115.612 68.2702C115.461 68.2068 115.374 68.0601 115.374 67.9095C115.374 67.8817 115.378 67.854 115.382 67.8302C115.386 67.8024 115.394 67.7747 115.405 67.7509C115.505 67.517 115.882 66.6765 116.453 65.6934C117.588 63.7429 119.497 61.2295 121.556 61.7925C121.758 61.848 121.925 61.9788 122.028 62.1651C122.135 62.3514 122.163 62.5814 122.104 62.7915Z" fill="var(--fill-0, #0A0919)"/>
<path id="Vector_25" d="M109.14 83.7233L109.021 83.8224L109.033 84.0008L109.398 89.9989L109.442 90.7402H109.438L108.652 90.7878L108.616 90.2209L108.608 90.0504L108.334 85.6302L108.203 83.4696L108.358 83.3427L109.676 82.2327L126.885 67.7747C127.132 67.5686 127.282 67.2673 127.302 66.9501C127.318 66.6726 127.231 66.4149 127.052 66.2247C125.87 64.96 121.921 67.4576 120.481 68.5359C120.445 68.5636 120.409 68.5914 120.378 68.6152L119.894 67.9888C120.021 67.8937 120.354 67.6399 120.826 67.3188C122.564 66.1414 126.124 64.0681 127.631 65.6855C127.961 66.0344 128.124 66.5022 128.092 67.0017C128.06 67.5329 127.806 68.0364 127.397 68.3813L109.14 83.7233Z" fill="var(--fill-0, #0A0919)"/>
<g id="Group_4">
<path id="Vector_26" d="M21.6459 78.4625H9.57087C4.51149 78.4625 0.396524 74.3514 0.396524 69.2969C0.396524 66.8548 1.35285 64.5555 3.09089 62.8231C4.82894 61.0907 7.13047 60.1273 9.57087 60.1273H29.2568C34.3162 60.1273 38.4352 64.2423 38.4352 69.2969C38.4352 71.731 37.4788 74.0303 35.7368 75.7707C33.9988 77.5071 31.6972 78.4625 29.2568 78.4625V78.8629H29.2529V86.3793L21.6459 78.4625Z" fill="var(--fill-0, white)"/>
<path id="Vector_27" d="M29.257 60.5198C34.0982 60.5198 38.0385 64.4564 38.0385 69.2929C38.0385 71.62 37.1219 73.8202 35.4592 75.4892C33.7966 77.1503 31.5943 78.0621 29.257 78.0621V78.855H28.8562V85.3922L22.0469 78.3079L21.8128 78.0661H9.57105C4.72991 78.0661 0.793514 74.1334 0.793514 69.2969C0.793514 66.9619 1.71016 64.7617 3.36884 63.1006C5.03149 61.4396 7.23381 60.5238 9.57105 60.5238H29.257M29.257 59.727H9.57105C6.9362 59.727 4.54738 60.8013 2.80933 62.5377C1.07128 64.2741 -0.000114972 66.6606 -0.000114972 69.2929C-0.000114972 74.5536 4.30532 78.855 9.57105 78.855H21.4755L29.6499 87.3625V78.855H29.257C31.8879 78.855 34.2847 77.7806 36.0187 76.0482C37.7528 74.3118 38.8321 71.9253 38.8321 69.2929C38.8321 64.0322 34.5227 59.727 29.257 59.727Z" fill="var(--fill-0, black)"/>
</g>
<g id="Group_5">
<path id="Vector_28" d="M29.1937 18.7317H17.1186C12.0592 18.7317 7.94427 14.6207 7.94427 9.56613C7.94427 7.12409 8.90059 4.82477 10.6386 3.09234C12.3767 1.35992 14.6782 0.396585 17.1186 0.396585H36.8046C41.864 0.396585 45.9829 4.51158 45.9829 9.56613C45.9829 12.0002 45.0266 14.2996 43.2846 16.0399C41.5465 17.7763 39.245 18.7317 36.8046 18.7317V19.1321V26.6485L29.1976 18.7317H29.1937Z" fill="var(--fill-0, white)"/>
<path id="Vector_29" d="M36.8045 0.792929C41.6456 0.792929 45.586 4.72953 45.586 9.56604C45.586 11.8931 44.6694 14.0933 43.0067 15.7623C41.3441 17.4234 39.1417 18.3352 36.8045 18.3352V19.1281H36.4037V25.6653L29.5944 18.581L29.3603 18.3392H17.1185C12.2774 18.3392 8.341 14.4065 8.341 9.57C8.341 7.235 9.25764 5.03479 10.9163 3.37372C12.579 1.71266 14.7813 0.796893 17.1185 0.796893H36.8045M36.8045 5.83101e-05H17.1185C14.4837 5.83101e-05 12.0949 1.0744 10.3568 2.81078C8.62274 4.54321 7.54737 6.93371 7.54737 9.56604C7.54737 14.8267 11.8528 19.1281 17.1185 19.1281H29.023L37.1973 27.6356V19.1281H36.8045C39.4354 19.1281 41.8321 18.0537 43.5662 16.3213C45.3003 14.5849 46.3796 12.1984 46.3796 9.56604C46.3796 4.30534 42.0702 5.83101e-05 36.8045 5.83101e-05Z" fill="var(--fill-0, black)"/>
</g>
<g id="Group_6">
<path id="Vector_30" d="M114.743 48.1549V47.7585C112.298 47.7585 109.997 46.8031 108.263 45.0667C106.524 43.3263 105.564 41.027 105.564 38.5929C105.564 33.5384 109.683 29.4234 114.743 29.4234H134.428C136.869 29.4234 139.17 30.3788 140.908 32.1191C142.647 33.8555 143.603 36.1548 143.603 38.5929C143.603 43.6475 139.488 47.7585 134.428 47.7585H122.353L114.746 55.6753V48.1549H114.743Z" fill="var(--fill-0, white)"/>
<path id="Vector_31" d="M134.429 29.82C136.762 29.82 138.964 30.7357 140.631 32.3968C142.293 34.0578 143.206 36.2581 143.206 38.5931C143.206 43.4296 139.27 47.3622 134.429 47.3622H122.187L121.953 47.604L115.143 54.6883V48.1511H114.743V47.3582C112.405 47.3582 110.203 46.4425 108.544 44.7854C106.878 43.1204 105.961 40.9201 105.961 38.5891C105.961 33.7526 109.901 29.816 114.743 29.816H134.429M134.429 29.0271H114.743C109.477 29.0271 105.167 33.3324 105.167 38.5931C105.167 41.2254 106.247 43.6119 107.981 45.3483C109.715 47.0807 112.112 48.1551 114.743 48.1551H114.35V56.6626L122.524 48.1551H134.429C139.694 48.1551 144 43.8538 144 38.5931C144 35.9607 142.924 33.5702 141.19 31.8378C139.452 30.1014 137.063 29.0271 134.429 29.0271Z" fill="var(--fill-0, black)"/>
</g>
<path id="Vector_32" d="M30.7334 59.0928C30.285 55.8658 28.6501 53.2057 26.1304 51.6081C25.8367 51.4218 25.5391 51.2553 25.2415 51.1125C25.2137 51.0967 25.182 51.0848 25.1502 51.0689C25.0788 51.0174 25.0074 50.9659 24.9359 50.9223C22.19 49.1779 18.3885 49.4753 14.9521 51.6715C14.8608 51.7231 14.7696 51.7706 14.6783 51.8222L14.6465 51.842H14.6346C14.6346 51.842 14.6346 51.8499 14.6307 51.8499C12.6625 53.0115 10.9482 54.6884 9.6705 56.6983C5.78965 62.8034 6.85708 70.4507 12.0554 73.749C13.6664 74.7718 15.4918 75.2554 17.3568 75.2554C21.4995 75.2554 25.8407 72.861 28.5152 68.6548C30.3882 65.7053 31.1778 62.3079 30.7334 59.0928ZM25.7534 66.5101C23.9836 69.2931 21.5194 71.4021 18.8131 72.4447C16.1346 73.4755 13.5394 73.3367 11.5077 72.0483C9.47606 70.7599 8.24593 68.4724 8.04356 65.6102C7.83721 62.7202 8.6983 59.5963 10.4681 56.8133C11.6506 54.95 13.1783 53.3603 14.9084 52.1948C16.8092 51.0888 18.8567 50.5337 20.8249 50.5337C22.3051 50.5337 23.7336 50.8469 25.0193 51.4852C25.6423 51.9292 26.174 52.4604 26.6145 53.067C26.7891 53.3128 26.9518 53.5665 27.0986 53.8321C27.174 53.9669 27.2454 54.1017 27.3089 54.2404C28.912 57.5507 28.4239 62.3118 25.7534 66.5101Z" fill="var(--fill-0, #0A0A0A)"/>
<path id="Vector_33" d="M27.3086 54.2405C27.2451 54.1017 27.1737 53.9669 27.0983 53.8321C26.9515 53.5665 26.7888 53.3128 26.6142 53.067C26.1737 52.4605 25.642 51.9293 25.019 51.4853C23.7333 50.847 22.3048 50.5338 20.8247 50.5338C18.8565 50.5338 16.8089 51.0888 14.9082 52.1949C13.1781 53.3604 11.6503 54.9501 10.4678 56.8133C8.69804 59.5963 7.83695 62.7202 8.0433 65.6102C8.24567 68.4725 9.4758 70.7599 11.5075 72.0483C13.5392 73.3368 16.1343 73.4755 18.8128 72.4448C21.5191 71.4022 23.9833 69.2931 25.7531 66.5101C28.4237 62.3119 28.9118 57.5507 27.3086 54.2405ZM24.0032 65.4001C22.6699 67.5012 20.8048 69.0949 18.7533 69.8838C17.8446 70.2327 16.9438 70.4071 16.0867 70.4071C14.9955 70.4071 13.9757 70.1256 13.0868 69.5627C11.5035 68.5597 10.5432 66.7877 10.3885 64.5755C10.2297 62.3872 10.8805 60.0245 12.2178 57.9194C14.9875 53.5626 19.8842 51.6954 23.1341 53.7568C24.7174 54.7638 25.6777 56.5358 25.8325 58.744C25.9912 60.9363 25.3404 63.299 24.0032 65.4001Z" fill="var(--fill-0, white)"/>
<g id="Group_7">
<path id="Vector_34" d="M25.8404 58.7438C25.6857 56.5357 24.7254 54.7636 23.1421 53.7567C19.8922 51.6952 14.9955 53.5624 12.2257 57.9193C10.8885 60.0243 10.2377 62.3871 10.3964 64.5754C10.5512 66.7875 11.5115 68.5596 13.0947 69.5626C13.9836 70.1255 15.0034 70.407 16.0947 70.407C16.9518 70.407 17.8525 70.2325 18.7613 69.8837C20.8128 69.0948 22.6778 67.5011 24.0111 65.4C25.3484 63.2989 25.9991 60.9361 25.8404 58.7438ZM23.6778 65.1859C22.3881 67.2157 20.5906 68.7538 18.6184 69.515C16.67 70.2643 14.7852 70.1652 13.309 69.2296C11.8329 68.294 10.94 66.629 10.7893 64.5477C10.6424 62.4426 11.2694 60.1631 12.559 58.1333C14.4876 55.0966 17.4756 53.3127 20.1422 53.3127C21.1382 53.3127 22.0945 53.5624 22.9278 54.0937C24.404 55.0293 25.2968 56.6903 25.4476 58.7756C25.4634 58.9777 25.4674 59.1799 25.4674 59.3821C25.4674 61.3088 24.8444 63.3504 23.6778 65.1859Z" fill="var(--fill-0, #0A0A0A)" stroke="var(--stroke-0, black)" stroke-width="0.421313" stroke-miterlimit="10"/>
<path id="Vector_35" d="M25.4678 59.382C25.4678 61.3087 24.8448 63.3503 23.6781 65.1858C22.3885 67.2155 20.5909 68.7537 18.6187 69.5149C16.6704 70.2641 14.7855 70.165 13.3094 69.2294C11.8332 68.2938 10.9404 66.6288 10.7896 64.5475C10.6428 62.4425 11.2697 60.163 12.5594 58.1332C14.4879 55.0965 17.4759 53.3126 20.1425 53.3126C21.1385 53.3126 22.0948 53.5623 22.9281 54.0935C24.4043 55.0291 25.2971 56.6902 25.4479 58.7754C25.4638 58.9776 25.4678 59.1798 25.4678 59.382Z" fill="var(--fill-0, white)"/>
</g>
<g id="Group_8">
<path id="Vector_36" d="M15.2651 7.06851H37.1176C37.3478 7.06851 37.5343 6.88219 37.5343 6.65225C37.5343 6.42232 37.3478 6.236 37.1176 6.236H15.2651C15.0349 6.236 14.8484 6.42232 14.8484 6.65225C14.8484 6.88219 15.0349 7.06851 15.2651 7.06851Z" fill="var(--fill-0, black)"/>
<path id="Vector_37" d="M37.1218 11.2984H15.2692C15.039 11.2984 14.8525 11.4847 14.8525 11.7147C14.8525 11.9446 15.039 12.1309 15.2692 12.1309H37.1218C37.3519 12.1309 37.5384 11.9446 37.5384 11.7147C37.5384 11.4847 37.3519 11.2984 37.1218 11.2984Z" fill="var(--fill-0, black)"/>
</g>
<g id="Group_9">
<g id="Group_10">
<path id="Vector_38" d="M130.71 18.7593C125.794 16.7534 120.155 18.8545 117.758 23.5879C116.568 25.9427 116.342 28.6662 117.139 31.1796C117.794 33.2451 117.993 34.3313 117.187 36.0201L117.036 36.3373C116.937 36.5434 116.997 36.7892 117.175 36.924C117.199 36.9438 117.231 36.9636 117.262 36.9795L125.996 41.1381C126.032 41.154 126.064 41.1658 126.099 41.1738C126.314 41.2253 126.544 41.1183 126.647 40.9121L126.758 40.6743C127.576 38.9617 128.576 38.3274 130.472 37.6257C133.087 36.6267 135.179 34.593 136.242 32.0042C138.377 26.8189 135.905 20.8922 130.714 18.7554L130.71 18.7593ZM130.123 36.7218C128.127 37.483 126.913 38.2203 125.98 40.0598L123.794 39.0172L122.921 38.6009L121.175 37.7724L120.302 37.3561L118.12 36.3135C119.036 34.3194 118.707 32.92 118.068 30.8744C117.425 28.8248 117.524 26.6127 118.346 24.6266C120.286 19.9367 125.663 17.7127 130.349 19.6513C132.691 20.6186 134.524 22.5017 135.429 24.8644C137.238 29.5979 134.865 34.9061 130.123 36.7178V36.7218Z" fill="var(--fill-0, black)"/>
<path id="Vector_39" d="M124.722 30.3632L121.182 37.7772L122.926 38.6083L126.466 31.1944L124.722 30.3632Z" fill="var(--fill-0, white)"/>
<path id="Vector_40" d="M130.123 36.7216C128.127 37.4828 126.913 38.2202 125.98 40.0596L123.794 39.017L127.334 31.5997L128.643 32.2221C129.849 32.7969 131.294 32.2855 131.869 31.0843C132.441 29.8792 131.933 28.4361 130.726 27.8613C129.524 27.2904 128.076 27.7979 127.504 29.003L126.877 30.3113L125.135 29.4788L125.758 28.1745C126.33 26.9693 125.818 25.5263 124.615 24.9515C123.409 24.3766 121.965 24.888 121.389 26.0932C120.818 27.2944 121.33 28.7414 122.532 29.3123L123.842 29.9347L120.302 37.3559L118.12 36.3133C119.036 34.3192 118.707 32.9198 118.068 30.8742C117.425 28.8246 117.524 26.6125 118.346 24.6264C120.286 19.9366 125.663 17.7126 130.349 19.6511C132.691 20.6184 134.524 22.5015 135.429 24.8643C137.238 29.5977 134.865 34.906 130.123 36.7177V36.7216Z" fill="var(--fill-0, white)"/>
</g>
<g id="Group_11">
<path id="Vector_41" d="M126.099 41.1738C125.984 40.7971 125.718 40.4721 125.337 40.2897L123.588 39.4572L120.969 38.2124L120.096 37.7961L118.35 36.9636C117.969 36.7813 117.544 36.7813 117.179 36.9279C116.854 37.0588 116.576 37.3085 116.417 37.6494C116.072 38.3749 116.377 39.2392 117.104 39.5801L117.389 39.7149L123.806 42.7714L124.091 42.9062C124.818 43.2511 125.683 42.9458 126.024 42.2203C126.191 41.8754 126.207 41.5028 126.103 41.1738H126.099ZM125.147 41.8041C125.032 42.0459 124.746 42.149 124.504 42.034L117.52 38.704C117.278 38.589 117.175 38.3036 117.29 38.0617C117.405 37.8199 117.691 37.7168 117.933 37.8318L124.917 41.1619C125.159 41.2768 125.262 41.5623 125.147 41.8041Z" fill="var(--fill-0, black)"/>
<path id="Vector_42" d="M125.147 41.8041C125.032 42.0459 124.746 42.149 124.504 42.034L117.52 38.7039C117.278 38.589 117.175 38.3035 117.29 38.0617C117.405 37.8199 117.691 37.7168 117.933 37.8318L124.917 41.1618C125.159 41.2768 125.262 41.5622 125.147 41.8041Z" fill="var(--fill-0, white)"/>
</g>
<g id="Group_12">
<path id="Vector_43" d="M123.802 42.7715C123.711 42.3512 123.429 41.9786 123.013 41.7843L118.648 39.7031C118.231 39.5048 117.771 39.5207 117.386 39.711C117.1 39.8497 116.862 40.0836 116.711 40.3889C116.366 41.1144 116.675 41.9786 117.398 42.3195L121.763 44.4008C122.489 44.7497 123.354 44.4405 123.699 43.715C123.842 43.4097 123.874 43.0807 123.802 42.7715ZM122.826 43.2987C122.711 43.5405 122.417 43.6436 122.183 43.5287L117.814 41.4474C117.576 41.3324 117.469 41.047 117.588 40.8051C117.703 40.5633 117.989 40.4602 118.231 40.5752L122.596 42.6565C122.838 42.7715 122.941 43.0569 122.826 43.2987Z" fill="var(--fill-0, black)"/>
<path id="Vector_44" d="M122.826 43.2986C122.711 43.5404 122.417 43.6435 122.183 43.5285L117.814 41.4472C117.576 41.3322 117.469 41.0468 117.588 40.805C117.703 40.5632 117.989 40.4601 118.231 40.5751L122.596 42.6563C122.838 42.7713 122.941 43.0567 122.826 43.2986Z" fill="var(--fill-0, white)"/>
</g>
<g id="Group_13">
<path id="Vector_45" d="M130.727 27.8616C129.524 27.2907 128.076 27.7982 127.504 29.0033L126.877 30.3116L126.671 30.7476C126.556 30.9895 126.659 31.2789 126.901 31.3899L127.338 31.596L128.647 32.2184C129.854 32.7932 131.298 32.2818 131.873 31.0806C132.445 29.8755 131.937 28.4324 130.731 27.8576L130.727 27.8616ZM130.996 30.6723C130.647 31.3938 129.782 31.703 129.06 31.3542L127.75 30.7318L128.377 29.4235C128.723 28.6981 129.584 28.3928 130.31 28.7377C131.036 29.0866 131.342 29.9508 130.996 30.6723Z" fill="var(--fill-0, black)"/>
<path id="Vector_46" d="M130.997 30.6721C130.647 31.3936 129.782 31.7028 129.06 31.354L127.751 30.7316L128.378 29.4233C128.723 28.6979 129.584 28.3926 130.31 28.7375C131.036 29.0864 131.342 29.9506 130.997 30.6721Z" fill="var(--fill-0, white)"/>
</g>
<g id="Group_14">
<path id="Vector_47" d="M124.612 24.9516C123.406 24.3768 121.961 24.8882 121.386 26.0934C120.814 27.2946 121.326 28.7416 122.529 29.3124L123.838 29.9348L124.275 30.141C124.517 30.2599 124.806 30.1529 124.917 29.915L125.128 29.475L125.751 28.1707C126.322 26.9655 125.81 25.5225 124.608 24.9477L124.612 24.9516ZM122.945 28.4442C122.219 28.0993 121.914 27.2311 122.259 26.5136C122.608 25.7881 123.473 25.4829 124.195 25.8278C124.917 26.1727 125.227 27.0408 124.878 27.7584L124.255 29.0666L122.945 28.4442Z" fill="var(--fill-0, black)"/>
<path id="Vector_48" d="M124.881 27.7584L124.258 29.0667L122.949 28.4443C122.223 28.0994 121.917 27.2312 122.262 26.5136C122.612 25.7881 123.477 25.4829 124.199 25.8278C124.921 26.1727 125.231 27.0409 124.881 27.7584Z" fill="var(--fill-0, white)"/>
</g>
<path id="Vector_49" d="M127.54 31.1677L127.334 31.6038L123.794 39.0211L123.588 39.4572L122.715 39.0409L122.921 38.6048L126.461 31.1875L124.715 30.359L121.175 37.7763L120.969 38.2124L120.096 37.7961L120.302 37.36L123.842 29.9387L124.048 29.5027C124.163 29.2608 124.449 29.1578 124.691 29.2727L125.131 29.4789L126.873 30.3114L127.31 30.5175C127.552 30.6325 127.655 30.9179 127.54 31.1598V31.1677Z" fill="var(--fill-0, black)"/>
</g>
<path id="Vector_50" d="M37.1812 18.3352H36.4034V19.4214H37.1812V18.3352Z" fill="var(--fill-0, black)"/>
<path id="Vector_51" d="M29.65 78.0464H28.8564V79.1326H29.65V78.0464Z" fill="var(--fill-0, black)"/>
<path id="Vector_52" d="M115.148 47.3662H114.35V48.3771H115.148V47.3662Z" fill="var(--fill-0, black)"/>
</g>
<defs>
<clipPath id="clip0_546_16630">
<rect width="144" height="129" fill="white"/>
</clipPath>
</defs>
</svg>
