<svg preserveAspectRatio="none" width="100%" height="100%" overflow="visible" style="display: block;" viewBox="0 0 90.1322 104" fill="none" xmlns="http://www.w3.org/2000/svg">
<path id="Vector" d="M81.8205 0.0735945C72.2423 -1.01957 54.6098 10.3394 46.9056 15.9476C41.4456 19.9227 36.2402 24.3252 31.4808 29.1252C30.8297 29.4432 28.341 28.3533 27.452 28.2109C23.4528 27.5682 19.9395 28.5819 17.1864 31.497C12.6584 36.2969 8.5932 41.9483 4.11151 46.8344C3.40092 48.4509 3.68516 50.2927 5.4071 51.0347L19.1099 50.7333C18.135 53.7776 17.8639 57.5473 17.9763 60.7837C18.0788 63.6955 18.6439 66.5974 19.5859 69.3435L4.02558 70.2644L3.94626 70.8276L12.7873 76.0449L2.96796 83.0312L2.89855 83.3558C3.9727 84.6411 6.48456 85.5753 7.55871 86.7413C7.70744 86.9036 7.84625 87.0063 7.79337 87.2614L0 104L0.611439 103.973L13.9243 92.0779C14.2085 92.1806 14.2317 92.8166 14.2911 93.0949C14.8828 95.9239 15.2463 100.535 16.1189 103.033C16.2048 103.271 16.294 103.712 16.684 103.496L24.7748 87.8179C25.1417 87.8643 28.6054 92.9061 29.3292 93.6415C29.5606 93.8767 29.5672 94.0423 29.9175 93.7475L31.0975 78.7314C37.2978 79.6755 43.4717 78.4134 49.3018 76.3894C50.0322 81.0668 50.2603 85.89 51.2485 90.4945C52.3359 91.7699 54.4148 91.9222 55.6211 90.733C59.7624 85.4362 68.934 75.2433 68.934 75.2433C68.934 75.2433 71.3335 72.1029 70.7551 68.2205C70.375 65.6698 69.4 63.4139 68.4977 61.1051C74.741 52.4625 80.2142 43.0745 84.3092 33.193C87.7035 25.001 96.7363 1.77959 81.8172 0.0802197L81.8205 0.0735945ZM6.4449 50.4451C4.50482 50.508 3.87685 48.5337 4.73617 47.0066L18.5316 30.9968C22.2663 27.7239 25.8358 29.092 30.1225 30.4767C24.7517 35.7537 21.0038 42.5876 19.2256 49.9316L6.4449 50.4484V50.4451ZM19.0174 64.6429C17.7747 57.3717 19.3545 50.0145 22.0449 43.2468C22.4216 43.3926 22.2861 43.7139 22.3093 43.9954C22.3919 45.1019 22.3688 46.0725 22.5836 47.202C23.7106 53.1681 27.7858 58.3357 31.9403 62.546L22.5869 73.1928C20.584 70.9236 19.5231 67.6011 19.0174 64.6429ZM35.4007 59.6707L37.4234 61.2343L9.63099 93.7077L7.60167 91.8129C16.6774 80.9674 25.9878 70.228 35.4007 59.6707ZM18.8786 77.7343C18.4489 77.6151 19.0472 77.1381 18.9645 76.7538C18.872 76.3397 17.6656 75.2731 17.8111 74.8656L21.364 72.8516L22.144 73.8122L18.8786 77.7343ZM30.3538 78.483L29.4086 92.651C28.6848 92.0713 25.0029 86.4929 24.4708 86.7546L16.7105 102.188L14.3837 91.157L1.28237 102.43L8.67582 86.8506C7.30091 85.5885 5.51287 84.7538 4.11151 83.548C3.9694 83.4254 3.7777 83.548 3.92312 83.1736L13.6235 75.9058L5.48973 71.0329L19.5826 70.059C20.356 70.1717 20.5047 71.669 21.0632 72.2222L16.8427 74.6967C16.6014 75.3725 18.8555 76.5286 18.0589 77.3965C14.7737 82.5641 10.8373 87.2879 6.61015 91.6837C6.46142 92.0315 9.15837 94.3073 9.59133 94.2775C9.8293 94.2609 10.1234 93.9827 10.3052 93.817C12.5196 91.7632 15.1207 87.331 17.3814 85.7012C18.5844 84.8366 20.7856 84.2039 22.0812 83.3227L20.9013 87.6158L21.0533 88.5401L25.7069 80.9641C26.1663 81.2888 27.3627 82.3488 27.918 82.0772L29.2169 78.208L30.3604 78.4797L30.3538 78.483ZM27.6007 81.5074C27.0124 81.2888 25.9911 80.1227 25.3929 80.3977L22.2101 85.9496C21.8763 85.943 22.0812 85.4362 22.1341 85.2308C22.3093 84.5053 22.6563 83.7732 22.8116 83.0047C22.8546 82.7828 23.0529 82.7165 22.7389 82.4416C22.1374 82.1997 19.5165 84.1741 18.71 84.3231L25.4722 76.618L28.536 78.0656L27.604 81.5107L27.6007 81.5074ZM25.9515 76.2006L35.0272 65.2226C41.1085 69.6383 48.3863 73.0238 56.0871 71.9936C47.5402 77.5422 35.6188 80.7985 25.9515 76.2006ZM68.5605 74.6967L54.9039 90.5475C53.8926 91.2166 52.3425 91.0113 51.7079 89.9181L49.986 76.0416C56.7713 72.9708 62.8328 68.5087 67.4566 62.6189C69.6115 66.7199 71.7003 70.3505 68.5605 74.6967ZM82.9971 34.7168C79.9564 41.6998 74.741 51.6376 69.043 59.4753C68.8216 59.7767 68.6002 60.0781 68.3754 60.373C65.9891 63.5663 63.5302 66.3555 61.1208 68.3862C55.0097 73.534 48.0327 71.7451 41.3795 68.406C40.1534 67.7899 36.3492 65.7162 35.5824 64.8019C35.361 64.5402 35.4436 64.5866 35.5659 64.4475C35.5824 64.4309 35.6023 64.4077 35.6188 64.3812C35.6353 64.3547 35.6552 64.3282 35.6783 64.2984C35.6948 64.2719 35.7146 64.2487 35.7378 64.2222C35.7477 64.209 35.7576 64.1924 35.7708 64.1792C36.2369 63.6028 37.2846 62.5626 37.7539 61.9034C37.7605 61.8935 37.7671 61.8868 37.7737 61.8769C37.8993 61.6947 37.9819 61.5456 37.9918 61.4429C38.048 60.8434 35.4502 58.8889 35.047 59.038L32.4063 61.8968C27.4586 57.4744 22.2795 49.8356 22.9306 42.8791C23.1388 40.6795 24.5005 38.2249 26.2291 35.9061C26.2787 35.8365 26.3315 35.7702 26.3811 35.7007C28.3311 33.1235 30.7075 30.7185 32.4129 29.0158C41.6241 19.8399 52.825 12.0155 64.2771 5.95016C61.4381 11.416 66.2469 18.0942 70.3618 21.4995C74.5162 24.938 81.5395 28.4958 86.5665 24.9745C85.7271 28.2473 84.3621 31.5665 82.9905 34.7135L82.9971 34.7168ZM88.0637 20.5356C87.3763 22.9306 86.8607 24.6929 84.2398 25.5244C76.5885 27.9492 63.6029 17.064 63.9664 9.15014C64.1383 5.36714 66.6105 4.63174 69.5553 3.40939C86.1005 -3.46096 92.985 3.42595 88.0637 20.5389V20.5356Z" fill="var(--fill-0, black)"/>
</svg>
