<svg preserveAspectRatio="none" width="100%" height="100%" overflow="visible" style="display: block;" viewBox="0 0 25.3328 25.3333" fill="none" xmlns="http://www.w3.org/2000/svg">
<path id="Vector" d="M6.83276 2.56344V4.5001C6.83276 5.42836 7.20151 6.3186 7.85789 6.97498C8.51427 7.63135 9.40451 8.0001 10.3328 8.0001M11.4992 24.275V19.6667C11.4992 19.0478 11.2534 18.4543 10.8158 18.0168C10.3782 17.5792 9.78471 17.3333 9.16587 17.3333C8.54703 17.3333 7.95354 17.0875 7.51595 16.6499C7.07837 16.2123 6.83254 15.6188 6.83254 15V13.8333C6.83254 13.2145 6.5867 12.621 6.14912 12.1834C5.71153 11.7458 5.11804 11.5 4.4992 11.5H1.05754M16.1661 23.7967V18.5C16.1661 17.8812 16.4119 17.2877 16.8495 16.8501C17.2871 16.4125 17.8806 16.1667 18.4994 16.1667H23.7961C23.1492 18.2236 21.9448 20.061 20.3169 21.4749C18.6889 22.8889 16.7009 23.824 14.5737 24.1764C12.4464 24.5289 10.2631 24.2849 8.26613 23.4716C6.26914 22.6583 4.53662 21.3074 3.26091 19.569C1.9852 17.8307 1.21622 15.7727 1.03933 13.6237C0.86244 11.4748 1.28457 9.31879 2.25885 7.3952C3.23313 5.47161 4.72145 3.85566 6.55856 2.72674C8.39567 1.59783 10.5097 1.00013 12.666 1M21.9994 5.66667V3.33333C21.9994 2.71449 21.7536 2.121 21.316 1.68342C20.8784 1.24583 20.2849 1 19.6661 1C19.0473 1 18.4538 1.24583 18.0162 1.68342C17.5786 2.121 17.3328 2.71449 17.3328 3.33333V5.66667M16.1661 5.66667H23.1661C23.8104 5.66667 24.3328 6.189 24.3328 6.83333V10.3333C24.3328 10.9777 23.8104 11.5 23.1661 11.5H16.1661C15.5218 11.5 14.9994 10.9777 14.9994 10.3333V6.83333C14.9994 6.189 15.5218 5.66667 16.1661 5.66667Z" stroke="var(--stroke-0, white)" stroke-width="2" stroke-linecap="round" stroke-linejoin="round"/>
</svg>
