<svg preserveAspectRatio="none" width="100%" height="100%" overflow="visible" style="display: block;" viewBox="0 0 24 28" fill="none" xmlns="http://www.w3.org/2000/svg">
<g id="ens-mark-Dark_Blue 1" clip-path="url(#clip0_546_16530)">
<path id="Vector" d="M11.6862 0.340246L4.13886 13.0098C4.07966 13.1092 3.94215 13.1202 3.86873 13.0314C3.20428 12.2264 0.728893 8.80226 3.79194 5.68133C6.58697 2.83349 10.1471 0.803025 11.4665 0.101257C11.6162 0.0216375 11.7739 0.19318 11.6862 0.340246Z" fill="var(--fill-0, white)"/>
<path id="Vector_2" d="M11.2688 27.9258C11.4194 28.0335 11.605 27.85 11.5041 27.6934C9.8183 25.0775 4.21441 16.3738 3.4403 15.0673C2.67677 13.7786 1.17502 11.6369 1.04974 9.80453C1.03724 9.62161 0.789301 9.58447 0.726932 9.7565C0.626346 10.0339 0.519257 10.3651 0.419451 10.7433C-0.840512 15.5183 0.98934 20.5854 4.9634 23.4232L11.2688 27.926V27.9258Z" fill="var(--fill-0, white)"/>
<path id="Vector_3" d="M12.3055 27.7006L19.8529 15.0311C19.912 14.9317 20.0496 14.9207 20.1231 15.0096C20.7875 15.8144 23.2629 19.2386 20.1998 22.3596C17.4048 25.2074 13.8447 27.2379 12.5253 27.9396C12.3756 28.0192 12.2179 27.8477 12.3055 27.7006Z" fill="var(--fill-0, white)"/>
<path id="Vector_4" d="M12.7312 0.113263C12.5805 0.00570391 12.3949 0.189135 12.4959 0.34578C14.1817 2.96167 19.7856 11.6653 20.5597 12.9718C21.3233 14.2606 22.8249 16.4023 22.9503 18.2346C22.9628 18.4175 23.2107 18.4546 23.2731 18.2826C23.3736 18.0052 23.4808 17.6741 23.5806 17.2958C24.8405 12.5208 23.0106 7.45384 19.0366 4.61596L12.7312 0.113263Z" fill="var(--fill-0, white)"/>
</g>
<defs>
<clipPath id="clip0_546_16530">
<rect width="24" height="28" fill="white"/>
</clipPath>
</defs>
</svg>
