<svg preserveAspectRatio="none" width="100%" height="100%" overflow="visible" style="display: block;" viewBox="0 0 23 23" fill="none" xmlns="http://www.w3.org/2000/svg">
<path id="Vector" d="M6.83333 1H5.66667C5.04783 1 4.45434 1.24583 4.01675 1.68342C3.57917 2.121 3.33333 2.71449 3.33333 3.33333V9.16667C3.33333 9.7855 3.0875 10.379 2.64992 10.8166C2.21233 11.2542 1.61884 11.5 1 11.5C1.61884 11.5 2.21233 11.7458 2.64992 12.1834C3.0875 12.621 3.33333 13.2145 3.33333 13.8333V19.6667C3.33333 20.95 4.38333 22 5.66667 22H6.83333M16.1667 22H17.3333C17.9522 22 18.5457 21.7542 18.9832 21.3166C19.4208 20.879 19.6667 20.2855 19.6667 19.6667V13.8333C19.6667 12.55 20.7167 11.5 22 11.5C21.3812 11.5 20.7877 11.2542 20.3501 10.8166C19.9125 10.379 19.6667 9.7855 19.6667 9.16667V3.33333C19.6667 2.71449 19.4208 2.121 18.9832 1.68342C18.5457 1.24583 17.9522 1 17.3333 1H16.1667" stroke="var(--stroke-0, white)" stroke-width="2" stroke-linecap="round" stroke-linejoin="round"/>
</svg>
