<svg preserveAspectRatio="none" width="100%" height="100%" overflow="visible" style="display: block;" viewBox="0 0 24.8502 24.1667" fill="none" xmlns="http://www.w3.org/2000/svg">
<path id="Vector" d="M16.75 7.41667L19.4333 10.1C19.6514 10.3138 19.9446 10.4335 20.25 10.4335C20.5554 10.4335 20.8486 10.3138 21.0667 10.1L23.5167 7.65C23.7304 7.43192 23.8502 7.13871 23.8502 6.83333C23.8502 6.52795 23.7304 6.23475 23.5167 6.01667L20.8333 3.33333M23.1666 1L11.9666 12.2M13.8333 16.75C13.8333 20.2938 10.9605 23.1667 7.41667 23.1667C3.87284 23.1667 1 20.2938 1 16.75C1 13.2062 3.87284 10.3333 7.41667 10.3333C10.9605 10.3333 13.8333 13.2062 13.8333 16.75Z" stroke="var(--stroke-0, white)" stroke-width="2" stroke-linecap="round" stroke-linejoin="round"/>
</svg>
