<svg preserveAspectRatio="none" width="100%" height="100%" overflow="visible" style="display: block;" viewBox="0 0 25.3354 25.3387" fill="none" xmlns="http://www.w3.org/2000/svg">
<path id="Vector" d="M12.6676 4.51031C12.669 4.04368 12.577 3.58149 12.3972 3.15091C12.2173 2.72034 11.9532 2.33008 11.6203 2.00308C11.2874 1.67609 10.8924 1.41896 10.4587 1.24683C10.025 1.0747 9.56122 0.991036 9.09469 1.00076C8.62816 1.01048 8.16828 1.1134 7.7421 1.30346C7.31593 1.49351 6.93206 1.76687 6.61308 2.10745C6.29409 2.44803 6.04644 2.84896 5.88467 3.28666C5.7229 3.72435 5.65029 4.18998 5.67111 4.65615M12.6676 4.51031V19.677M12.6676 4.51031C12.6662 4.04368 12.7584 3.58149 12.9383 3.15091C13.1181 2.72034 13.3823 2.33008 13.7152 2.00308C14.0481 1.67609 14.443 1.41896 14.8767 1.24683C15.3104 1.0747 15.7742 0.991036 16.2407 1.00076C16.7073 1.01048 17.1672 1.1134 17.5933 1.30346C18.0195 1.49351 18.4034 1.76687 18.7224 2.10745C19.0413 2.44803 19.289 2.84896 19.4508 3.28666C19.6125 3.72435 19.6851 4.18998 19.6643 4.65615C20.3501 4.83247 20.9867 5.16254 21.5261 5.62134C22.0654 6.08015 22.4932 6.65566 22.7772 7.3043C23.0611 7.95294 23.1938 8.65769 23.165 9.36518C23.1363 10.0727 22.947 10.7643 22.6113 11.3878M5.67111 4.65615C4.98534 4.83247 4.34869 5.16254 3.80938 5.62134C3.27006 6.08015 2.84222 6.65566 2.55826 7.3043C2.2743 7.95294 2.14166 8.65769 2.1704 9.36518C2.19913 10.0727 2.38848 10.7643 2.72411 11.3878M5.67111 4.65615C5.69418 5.2205 5.85361 5.77083 6.13556 6.26025M2.72411 11.3878C2.13399 11.8672 1.66994 12.4836 1.37234 13.1832C1.07474 13.8829 0.952592 14.6447 1.01653 15.4023C1.08047 16.1599 1.32856 16.8905 1.73921 17.5303C2.14987 18.1702 2.71065 18.7001 3.37278 19.0738M2.72411 11.3878C2.93754 11.214 3.16619 11.0605 3.40687 10.9269M3.37278 19.0738C3.29101 19.7064 3.3398 20.3491 3.51614 20.9621C3.69248 21.5751 3.99262 22.1455 4.39802 22.6379C4.80343 23.1304 5.30549 23.5345 5.8732 23.8254C6.44091 24.1162 7.06222 24.2876 7.69875 24.3289C8.33528 24.3702 8.97352 24.2805 9.57406 24.0655C10.1746 23.8505 10.7247 23.5146 11.1903 23.0787C11.656 22.6428 12.0273 22.116 12.2814 21.5309C12.5355 20.9458 12.6669 20.3148 12.6676 19.677M3.37278 19.0738C4.07309 19.4688 4.86401 19.6772 5.66804 19.6768M12.6676 19.677C12.6683 20.3148 12.7999 20.9458 13.054 21.5309C13.3081 22.116 13.6795 22.6428 14.1451 23.0787C14.6108 23.5146 15.1608 23.8505 15.7614 24.0655C16.3619 24.2805 17.0002 24.3702 17.6367 24.3289C18.2732 24.2876 18.8945 24.1162 19.4622 23.8254C20.0299 23.5345 20.532 23.1304 20.9374 22.6379C21.3428 22.1455 21.6429 21.5751 21.8193 20.9621C21.9956 20.3491 22.0444 19.7064 21.9627 19.0738M22.6113 11.3878C23.2014 11.8672 23.6655 12.4836 23.9631 13.1832C24.2607 13.8829 24.3828 14.6447 24.3189 15.4023C24.255 16.1599 24.0069 16.8905 23.5962 17.5303C23.1856 18.1702 22.6248 18.7001 21.9627 19.0738M22.6113 11.3878C22.3979 11.214 22.1695 11.0605 21.9288 10.9269M21.9627 19.0738C21.2623 19.4688 20.4718 19.6772 19.6678 19.6768M16.1678 13.8436C15.1883 13.499 14.333 12.8717 13.71 12.0411C13.087 11.2104 12.7243 10.2137 12.6678 9.17692C12.6113 10.2137 12.2486 11.2104 11.6256 12.0411C11.0026 12.8717 10.1473 13.499 9.16781 13.8436M19.2001 6.26025C19.4825 5.77094 19.6422 5.22054 19.6656 4.65609" stroke="var(--stroke-0, white)" stroke-width="2" stroke-linecap="round" stroke-linejoin="round"/>
</svg>
