<svg preserveAspectRatio="none" width="100%" height="100%" overflow="visible" style="display: block;" viewBox="0 0 25.3233 25.3333" fill="none" xmlns="http://www.w3.org/2000/svg">
<path id="Vector" d="M13.1338 13.8532C13.6656 12.6205 14.6063 11.6089 15.7972 10.9892C16.9881 10.3695 18.3564 10.1795 19.6711 10.4513C20.9858 10.7232 22.1665 11.4401 23.014 12.4813C23.8615 13.5225 24.324 14.8242 24.3233 16.1667C24.3233 20.677 19.6566 24.3333 13.8233 24.3333C9.06681 24.3333 4.31148 23.3767 1.72381 21.461C1.22681 21.0923 0.987643 20.4903 1.00048 19.872C1.12764 13.5102 1.72148 1 10.3233 1C11.2516 1 12.1418 1.36875 12.7982 2.02513C13.4546 2.6815 13.8233 3.57174 13.8233 4.5C13.8233 5.11884 13.5775 5.71233 13.1399 6.14992C12.7023 6.5875 12.1088 6.83333 11.49 6.83333C10.2008 6.83333 9.57664 6.31533 9.15664 5.66667M16.1567 15.0001C15.4526 14.4717 14.6381 14.1096 13.7741 13.9407C12.9101 13.7719 12.0192 13.8008 11.168 14.0253C10.3168 14.2498 9.52742 14.664 8.85907 15.2369C8.19071 15.8098 7.66068 16.5266 7.3087 17.3334M10.2813 6.62911C8.01218 7.97311 9.74002 13.8333 7.99002 16.1666" stroke="var(--stroke-0, white)" stroke-width="2" stroke-linecap="round" stroke-linejoin="round"/>
</svg>
