<svg preserveAspectRatio="none" width="100%" height="100%" overflow="visible" style="display: block;" viewBox="0 0 111 22" fill="none" xmlns="http://www.w3.org/2000/svg">
<g id="JAW.ID">
<path d="M10.4028 0H16.4417V14.85C16.4343 16.2603 16.0633 17.5013 15.3287 18.5731C14.6014 19.6378 13.5949 20.4699 12.3093 21.0692C11.031 21.6615 9.55797 21.9577 7.8903 21.9577C6.44303 21.9577 5.12066 21.7179 3.92317 21.2385C2.72568 20.7519 1.77063 19.9904 1.05802 18.9538C0.3454 17.9103 -0.00723409 16.5564 0.000112447 14.8923H6.12713C6.14917 15.4353 6.24468 15.8936 6.41365 16.2673C6.58996 16.641 6.8324 16.9231 7.14096 17.1135C7.45686 17.2968 7.83888 17.3885 8.28702 17.3885C8.7425 17.3885 9.12452 17.2933 9.43308 17.1029C9.74898 16.9125 9.98774 16.6304 10.1494 16.2567C10.311 15.876 10.3955 15.4071 10.4028 14.85V0Z" fill="var(--fill-0, black)"/>
<path d="M25.208 21.6615H18.5961L26.0455 0H34.4205L41.8699 21.6615H35.258L30.3211 5.96539H30.1448L25.208 21.6615ZM23.9737 13.1154H36.4041V17.5154H23.9737V13.1154Z" fill="var(--fill-0, black)"/>
<path d="M47.1374 21.6615L40.4814 0H47.3137L50.3993 13.3269H50.5756L54.2342 0H59.6118L63.2704 13.3692H63.4467L66.5323 0H73.3646L66.7086 21.6615H60.846L57.0111 9.56154H56.8348L52.9999 21.6615H47.1374Z" fill="var(--fill-0, black)"/>
<path d="M75.7421 22C74.8899 22 74.1589 21.7144 73.5491 21.1433C72.9467 20.5651 72.6492 19.8635 72.6565 19.0385C72.6492 18.2346 72.9467 17.5471 73.5491 16.976C74.1589 16.4048 74.8899 16.1192 75.7421 16.1192C76.5502 16.1192 77.2628 16.4048 77.8799 16.976C78.5044 17.5471 78.8203 18.2346 78.8276 19.0385C78.8203 19.5885 78.6697 20.0891 78.3758 20.5404C78.0893 20.9846 77.7146 21.3407 77.2518 21.6087C76.789 21.8696 76.2857 22 75.7421 22Z" fill="var(--fill-0, black)"/>
<path d="M88.1724 0V21.6615H82.0454V0H88.1724Z" fill="var(--fill-0, black)"/>
<path d="M99.7598 21.6615H91.0762V0H99.6716C101.993 0 103.999 0.433654 105.688 1.30096C107.385 2.16122 108.693 3.40224 109.612 5.02404C110.537 6.63878 111 8.57436 111 10.8308C111 13.0872 110.541 15.0263 109.623 16.6481C108.704 18.2628 107.404 19.5038 105.721 20.3712C104.039 21.2314 102.052 21.6615 99.7598 21.6615ZM97.2032 16.6692H99.5394C100.656 16.6692 101.607 16.4965 102.394 16.151C103.187 15.8054 103.789 15.2096 104.201 14.3635C104.62 13.5173 104.829 12.3397 104.829 10.8308C104.829 9.32179 104.616 8.14423 104.19 7.29808C103.771 6.45192 103.154 5.85609 102.338 5.51058C101.53 5.16506 100.539 4.99231 99.3631 4.99231H97.2032V16.6692Z" fill="var(--fill-0, black)"/>
</g>
</svg>
