<svg width="165" height="38" viewBox="0 0 165 38" fill="none" xmlns="http://www.w3.org/2000/svg">
<rect width="7.39704" height="7.39704" transform="matrix(-0.866025 0.5 0 -1 21.9946 29.3014)" fill="#020617"/>
<rect width="7.39704" height="7.39704" transform="matrix(-0.866025 0.5 0 -1 21.9946 20.8603)" fill="#020617"/>
<rect width="7.39704" height="7.39704" transform="matrix(-0.866025 0.5 0 -1 34.7903 29.3014)" fill="#020617"/>
<rect width="7.39704" height="7.39704" transform="matrix(-0.866025 0.5 0 -1 34.7903 20.8603)" fill="#020617"/>
<rect width="7.39704" height="7.39704" transform="matrix(-0.866025 0.5 0 -1 34.7903 12.397)" fill="#020617"/>
<rect width="7.39704" height="7.39704" transform="matrix(-0.866025 -0.5 0 1 15.606 25.6029)" fill="#020617"/>
<rect width="7.39704" height="7.39704" transform="matrix(-0.866025 -0.5 0 1 28.4014 25.6029)" fill="#020617"/>
<rect width="7.39704" height="7.39704" transform="matrix(-0.866025 -0.5 0 1 28.4014 17.1618)" fill="#020617"/>
<path d="M55.1931 7.99999H61.232V22.85C61.2246 24.2602 60.8536 25.5013 60.119 26.5731C59.3917 27.6378 58.3852 28.4699 57.0995 29.0692C55.8212 29.6615 54.3483 29.9577 52.6806 29.9577C51.2333 29.9577 49.9109 29.7179 48.7135 29.2384C47.516 28.7519 46.5609 27.9904 45.8483 26.9538C45.1357 25.9102 44.783 24.5564 44.7904 22.8923H50.9174C50.9395 23.4352 51.035 23.8936 51.2039 24.2673C51.3802 24.641 51.6227 24.9231 51.9312 25.1134C52.2471 25.2968 52.6292 25.3884 53.0773 25.3884C53.5328 25.3884 53.9148 25.2933 54.2234 25.1029C54.5393 24.9125 54.778 24.6304 54.9396 24.2567C55.1013 23.8759 55.1858 23.407 55.1931 22.85V7.99999Z" fill="#020617"/>
<path d="M69.9982 29.6615H63.3863L70.8357 7.99999H79.2108L86.6602 29.6615H80.0483L75.1114 13.9654H74.9351L69.9982 29.6615ZM68.764 21.1154H81.1944V25.5154H68.764V21.1154Z" fill="#020617"/>
<path d="M91.9277 29.6615L85.2717 7.99999H92.104L95.1895 21.3269H95.3659L99.0244 7.99999H104.402L108.061 21.3692H108.237L111.323 7.99999H118.155L111.499 29.6615H105.636L101.801 17.5615H101.625L97.7902 29.6615H91.9277Z" fill="#020617"/>
<path d="M120.532 30C119.68 30 118.949 29.7144 118.339 29.1433C117.737 28.5651 117.439 27.8635 117.447 27.0385C117.439 26.2346 117.737 25.5471 118.339 24.9759C118.949 24.4048 119.68 24.1192 120.532 24.1192C121.34 24.1192 122.053 24.4048 122.67 24.9759C123.295 25.5471 123.611 26.2346 123.618 27.0385C123.611 27.5885 123.46 28.0891 123.166 28.5404C122.88 28.9846 122.505 29.3407 122.042 29.6086C121.579 29.8695 121.076 30 120.532 30Z" fill="#020617"/>
<path d="M132.963 7.99999V29.6615H126.836V7.99999H132.963Z" fill="#020617"/>
<path d="M144.55 29.6615H135.866V7.99999H144.462C146.783 7.99999 148.789 8.43364 150.479 9.30095C152.176 10.1612 153.483 11.4022 154.402 13.024C155.327 14.6388 155.79 16.5743 155.79 18.8308C155.79 21.0872 155.331 23.0263 154.413 24.6481C153.494 26.2628 152.194 27.5038 150.512 28.3711C148.829 29.2314 146.842 29.6615 144.55 29.6615ZM141.993 24.6692H144.33C145.446 24.6692 146.398 24.4965 147.184 24.1509C147.977 23.8054 148.58 23.2096 148.991 22.3634C149.41 21.5173 149.619 20.3397 149.619 18.8308C149.619 17.3218 149.406 16.1442 148.98 15.2981C148.561 14.4519 147.944 13.8561 147.129 13.5106C146.321 13.1651 145.329 12.9923 144.153 12.9923H141.993V24.6692Z" fill="#020617"/>
</svg>
