<svg width="114" height="125" viewBox="0 0 114 125" fill="none" xmlns="http://www.w3.org/2000/svg">
<rect width="32.9117" height="32.911" transform="matrix(-0.866031 0.499991 0 -1 56.9255 108.123)" fill="black" fill-opacity="0.6"/>
<rect width="32.9117" height="32.911" transform="matrix(-0.866031 0.499991 0 -1 56.9255 70.5654)" fill="black" fill-opacity="0.6"/>
<rect width="32.9117" height="32.911" transform="matrix(-0.866031 0.499991 0 -1 113.858 108.123)" fill="black" fill-opacity="0.6"/>
<rect width="32.9117" height="32.911" transform="matrix(-0.866031 0.499991 0 -1 113.858 70.5654)" fill="black" fill-opacity="0.6"/>
<rect width="32.9117" height="32.911" transform="matrix(-0.866031 0.499991 0 -1 113.858 32.9111)" fill="black" fill-opacity="0.6"/>
<rect width="32.9117" height="32.911" transform="matrix(-0.866031 -0.499991 0 1 28.5026 91.667)" fill="black" fill-opacity="0.6"/>
<rect width="32.9117" height="32.911" transform="matrix(-0.866031 -0.499991 0 1 85.4298 91.667)" fill="black" fill-opacity="0.6"/>
<rect width="32.9117" height="32.911" transform="matrix(-0.866031 -0.499991 0 1 85.4298 54.1104)" fill="black" fill-opacity="0.6"/>
</svg>
